<svg width="30" height="30" viewBox="0 0 30 29" fill="white" xmlns="http://www.w3.org/2000/svg">
  <path
    d="M30.5198 20.1217C30.1785 18.3899 29.0708 16.8921 27.4902 16.032C26.6939 15.599 25.8018 15.3709 24.8917 15.365C22.868 15.3241 21.0239 16.4884 20.2276 18.3021C19.8085 19.2968 19.8085 20.4143 20.2276 21.4089C20.5749 22.3099 21.2754 23.0354 22.1735 23.4216C22.5626 23.5795 22.9758 23.6615 23.4009 23.6673C24.6702 23.72 25.7958 22.8775 26.0712 21.6663C26.2329 20.9759 25.9155 20.268 25.2929 19.9052C25.1312 19.8175 24.9516 19.7707 24.766 19.7648C24.5684 19.759 24.3768 19.8292 24.2391 19.9696C24.1972 20.0106 24.1613 20.0632 24.1433 20.1217C24.1912 20.151 24.2451 20.1744 24.299 20.1978C24.6522 20.3148 24.9276 20.6015 25.0174 20.9584C25.0773 21.2685 24.9755 21.5903 24.742 21.8126C24.4067 22.1402 23.9756 22.345 23.5086 22.4035H23.353C22.3052 22.3275 21.455 21.5493 21.3053 20.5313C20.97 18.8696 21.9998 17.2373 23.6703 16.7868C24.0535 16.6697 24.4486 16.6112 24.8498 16.6112C26.6639 16.658 28.2685 17.7638 28.9212 19.4196C29.46 20.7127 29.4301 22.1637 28.8373 23.4333C28.2087 24.8316 27.0292 25.9199 25.5623 26.4464C24.8678 26.698 24.1313 26.8267 23.3889 26.8326C20.2875 26.7916 17.6171 24.6795 16.9346 21.719C16.1443 18.8345 17.2399 15.7746 19.6947 13.9959C21.1437 12.8726 22.1974 11.3338 22.7003 9.59611C23.2751 7.64779 23.0356 5.5532 22.0298 3.77456C21.0898 2.06027 19.4792 0.796494 17.5632 0.26407C16.9406 0.0885462 16.2939 0.00078403 15.6473 0.00078403C12.6117 -0.0460224 9.95937 2.00761 9.30676 4.90376C8.93555 6.47178 9.30676 8.11586 10.3126 9.38548C11.2646 10.5673 12.7195 11.2636 14.2583 11.2577C14.4558 11.2694 14.6474 11.2694 14.845 11.2577C15.9347 11.1407 16.9286 10.5908 17.5932 9.74238C18.2099 8.96423 18.4913 7.97544 18.3715 6.99835C18.2218 5.67607 17.1441 4.63463 15.785 4.50591H15.6114C14.7013 4.4825 13.905 5.08514 13.6954 5.94521C13.5937 6.39572 13.8391 6.85208 14.2822 7.02176H14.4079C14.4379 7.02761 14.4678 7.02761 14.4918 7.02176C14.4977 6.97495 14.4977 6.92229 14.4918 6.86964C14.4259 6.55954 14.5037 6.23775 14.7013 5.99201C14.8869 5.75798 15.1743 5.62926 15.4797 5.63511H15.6593C16.2939 5.71117 16.8208 6.15584 16.9885 6.75847C17.2998 7.64779 17.0184 8.63073 16.282 9.22751C15.7251 9.71313 15.0007 9.97642 14.2523 9.96471C13.5757 9.97056 12.9051 9.78334 12.3363 9.42059C11.3784 8.8004 10.7317 7.81162 10.5761 6.69411C10.3845 5.45374 10.7317 4.18996 11.534 3.21288C12.5339 2.01346 14.0367 1.32892 15.6174 1.34062C17.1022 1.34647 18.5332 1.914 19.6049 2.92034C20.9461 4.18411 21.6645 5.95691 21.5688 7.77651C21.4789 9.74238 20.515 11.5678 18.9343 12.7848C17.6231 13.8438 15.9706 14.4289 14.2702 14.4406C13.1746 14.4289 12.0909 14.2241 11.073 13.8321C10.0671 13.4518 9.00141 13.2529 7.92369 13.2412C6.49871 13.2529 5.09769 13.6215 3.8643 14.3177C2.08607 15.3124 0.786829 16.9623 0.259947 18.893C-0.254961 20.7127 0.00249281 22.6551 0.966448 24.2875C2.122 26.2241 4.23551 27.4294 6.53464 27.4528C7.79197 27.4586 9.01937 27.0725 10.0432 26.347C11.1987 25.5396 11.9711 24.3109 12.1867 22.9418C12.3902 21.6956 12.0849 20.426 11.3245 19.4021C10.5521 18.3489 9.30676 17.7229 7.98356 17.7053C7.14534 17.6995 6.32508 17.9745 5.67247 18.4893C5.01985 19.0101 4.62469 19.7765 4.5708 20.5956C4.49896 21.2802 4.73845 21.9647 5.22342 22.4679C5.57667 22.8423 6.07362 23.0588 6.59451 23.0647C6.83999 23.0647 7.08547 23.0062 7.30101 22.895C7.66025 22.7195 7.86981 22.345 7.8279 21.9589C7.8279 21.8653 7.76203 21.7833 7.67223 21.7541C7.61235 21.7658 7.55847 21.7892 7.51656 21.8302C7.31897 21.9998 7.06751 22.0934 6.81005 22.0993C6.37897 22.0934 6.00177 21.8302 5.85209 21.4323C5.54673 20.6073 5.91795 19.6888 6.71426 19.2909C7.08547 19.0744 7.51057 18.9633 7.94165 18.9633C8.58828 18.9691 9.21096 19.1914 9.70192 19.5893C10.7557 20.4728 11.1628 21.8887 10.7377 23.1817C10.1629 24.9779 8.4386 26.189 6.51069 26.1422C5.85209 26.1422 5.19947 26.0135 4.59475 25.7561C3.19971 25.1651 2.122 24.0242 1.63703 22.6083C1.11014 21.0988 1.24186 19.443 1.99028 18.033C3.1578 15.8623 5.4689 14.5108 7.97758 14.5342C9.36064 14.5342 10.7078 14.9321 11.8693 15.6693C13.8691 16.9447 15.1743 19.0218 15.4318 21.3445C16.0604 25.2587 19.5331 28.1256 23.5805 28.0847C25.8137 28.0613 27.9153 27.0257 29.2505 25.2763C30.412 23.8311 30.879 21.9472 30.5198 20.1217Z"></path>
</svg>